<svg xmlns="http://www.w3.org/2000/svg" viewBox="0 0 153.54 150"><defs><style>.cls-1{fill:#fff;}.cls-2{fill:#004593;}.cls-3{fill:#66687b;}</style></defs><g id="Layer_2" data-name="Layer 2"><g id="Layer_1-2" data-name="Layer 1"><ellipse class="cls-1" cx="74.81" cy="75.6" rx="69.61" ry="71.34"/><path class="cls-2" d="M153.54,75.6c-2,.67-4.76.86-6.82,1.34-.52.14-.76.28-.73.43l-.07,1.77-.3,3.52c-3.54,36.05-34.12,66.43-70.81,67.28C34,151.61-.21,117.06,0,76.53c.35-.73,2.31-1.24,3.17-1.59.58-.23,1.59-.66,1.49-1.08V72.12a74.6,74.6,0,0,1,19.24-48C71.28-26.38,151,8,153.54,75.6Zm-18.24,0c2-58.29-66-89.63-108.63-48.8a69.56,69.56,0,0,0-20.46,42c-.13,1.13-.38,4-.4,5.13,0,.28.28.58.94.87l.5.21.59.22L9,75.6c.73.28,1.3.54,1.4.81.06.53.1,1.84.1,2.41l.23,3.2c5.37,55.83,71.57,83.14,112.47,42.66A67.85,67.85,0,0,0,142.77,77.3c.08-.23-.78-.49-1.2-.55l-1.76-.33c-1.27-.22-3.31-.47-4.51-.82Z"/><path class="cls-3" d="M76.8,132a10.61,10.61,0,0,1-8.13-3.62,13.06,13.06,0,0,1-3.33-9.21A20.43,20.43,0,0,1,67,111.46a30.06,30.06,0,0,1,5.41-8.37q8.14-9.21,25-16l1.93-8.46a31.58,31.58,0,0,1-6.18,4.29A17.07,17.07,0,0,1,85.77,85a6.13,6.13,0,0,1-3.84-1.14,4,4,0,0,1-1.47-3.35q0-3.5,3.86-8.74A22.45,22.45,0,0,1,87.9,68a20.19,20.19,0,0,1,4.47-2.89A10.89,10.89,0,0,1,97.07,64a7.09,7.09,0,0,1,6.14,3.5,1.61,1.61,0,0,1,.28.83,1.36,1.36,0,0,1-.5,1.06,1.6,1.6,0,0,1-1.08.43,1.53,1.53,0,0,1-1.18-.7,2.73,2.73,0,0,0-2.24-1.3q-2.88,0-7.17,4.84-4.68,5.31-4.68,7.75c0,.79.43,1.2,1.3,1.22a10.11,10.11,0,0,0,3.93-1.34q4.14-2,9.29-7.51c1.21-1.29,2.33-1.93,3.35-1.93a2.14,2.14,0,0,1,1.85.94,3.53,3.53,0,0,1,.67,2,2.76,2.76,0,0,1-.28,1.22,58.1,58.1,0,0,0-2.63,9.53,88.94,88.94,0,0,0,13.95-4.41q5.1-2.25,7.26-5.43a1.43,1.43,0,0,1,1.14-.67,1.58,1.58,0,0,1,1.08.45,1.38,1.38,0,0,1,.5,1,1.65,1.65,0,0,1-.28.87,19.24,19.24,0,0,1-8.32,6.35,96.25,96.25,0,0,1-15.1,4.87,2.66,2.66,0,0,1-.47.11,1.5,1.5,0,0,0-.39.12c-.11,0-.19.23-.24.51l-.12.67q-1.57,7.36-2.83,12.48a75.31,75.31,0,0,1-4.88,14.17Q90.1,126.79,83,130.37A13.84,13.84,0,0,1,76.8,132Zm-1.66-4.21A10,10,0,0,0,80,126.3a19.07,19.07,0,0,0,5.21-4.73,39.3,39.3,0,0,0,5-8.56,78.9,78.9,0,0,0,4.33-12.91q1.14-4.75,2.16-9.48a77.87,77.87,0,0,0-13.5,7.14,46,46,0,0,0-8.83,7.6,27.56,27.56,0,0,0-4.8,7.4,17.14,17.14,0,0,0-1.48,6.55,9.1,9.1,0,0,0,2,6.12A6.33,6.33,0,0,0,75.14,127.77Z"/><path class="cls-3" d="M54.24,117.31a16.27,16.27,0,0,1,0-2c.69-6.43,1.95-14.62,3.87-24.53Q59.68,82.48,61,74.62q2.26-13.87,1.79-19.38a11.49,11.49,0,0,0-.59-3,.92.92,0,0,0-.56-.06c-1.26.11-7.17,1.54-17.76,4.25q-21.66,5.81-26.8,6.26c-.89.07-1.36,0-1.38-.25s.25-.49.81-.9A111.29,111.29,0,0,1,27,55.47a115.83,115.83,0,0,1,14.24-6.28,46.47,46.47,0,0,1,12.31-3c.47,0,1.82-.1,4.11-.19s4.26,1.19,6,3.9c2-.44,3.63-.78,4.8-1,3.88-.74,4-.86,4.38-3,.39-2.88,1.32-4.36,2.76-4.48a2.93,2.93,0,0,1,2.92,3,6.08,6.08,0,0,1-.23,1.73,2.12,2.12,0,0,0,0,.58c.05,0,.09,0,.22,0,.29,0,.83-.12,1.59-.24,1.7-.51,6.55-1.28,14.58-2.27l3-.31c6-.51,10.33-.3,12.87.62,1.53.55,2.36,1.31,2.44,2.28a2.56,2.56,0,0,1-1.47,2.2,1.86,1.86,0,0,1-.66.21,1.05,1.05,0,0,1-.69-.15c-3.72-2.32-8.35-3.33-13.89-3.07-1,0-1.94.11-3,.2a138.38,138.38,0,0,0-15.68,2.36c-.73,2.81-2,7.37-3.85,13.64Q67.22,84.84,60.9,103.17C57.53,113,55.4,118,54.6,118.06,54.39,118.08,54.29,117.82,54.24,117.31ZM61,50.52c-1.61-1.42-4.08-2-7.32-1.71,0,0-1,.08-2.69.28a50.22,50.22,0,0,0-8.64,2.29c-4,1.37-7.78,2.83-11.26,4.42s-6.2,3-8.1,4Q43.58,54.57,61,50.52ZM58.24,104.9c.44-1.38,1.79-6.47,4-15.31s5.39-22.06,9.62-39.78l-7.5,1.68a5.12,5.12,0,0,1,.24,1.32,49.73,49.73,0,0,1-.43,8.38C63.5,67.2,62,77.43,59.57,92q-2.3,13.56-2.19,14.8c0,.1,0,.15.06.15A8.58,8.58,0,0,0,58.24,104.9Z"/><path class="cls-3" d="M54.58,118.92c-.38,0-1.08-.19-1.2-1.54h0a18.22,18.22,0,0,1,0-2.14c.73-6.84,2-15.11,3.88-24.64,1.08-5.83,2-11.11,2.84-16.12,1.49-9.14,2.09-15.59,1.79-19.16a13.75,13.75,0,0,0-.38-2.26c-1.85.24-10.26,2.36-17.47,4.21-14.71,3.93-23.53,6-26.94,6.28-1,.08-1.57,0-1.94-.31a1,1,0,0,1-.37-.73c-.06-.7.54-1.21,1.16-1.66a110.17,110.17,0,0,1,10.63-6.14A117.19,117.19,0,0,1,41,48.38a47.24,47.24,0,0,1,12.53-3c.47,0,1.75-.1,4.14-.19s4.6,1.18,6.41,3.79h0c1.77-.38,3.17-.67,4.24-.86,3.42-.65,3.42-.65,3.67-2.24.45-3.29,1.64-5,3.54-5.21a3.77,3.77,0,0,1,3.86,3.75,10.26,10.26,0,0,1-.11,1.42h0l.6-.09c2.34-.68,9.25-1.62,14.66-2.29l3-.31c6.24-.52,10.57-.31,13.25.67,1.88.67,2.9,1.69,3,3a3.41,3.41,0,0,1-1.92,3,2.66,2.66,0,0,1-1,.31,1.92,1.92,0,0,1-1.21-.27c-3.54-2.21-8-3.2-13.4-2.95-1,0-1.89.11-2.88.19a137.88,137.88,0,0,0-15.09,2.25c-.57,2.13-1.72,6.34-3.72,13.15C70.4,77,66.06,90.77,61.72,103.45c-5.23,15.31-6.28,15.4-7,15.47Zm3.27-21.85c-1.24,6.93-2.15,13.07-2.71,18.31l0,.53a120,120,0,0,0,5-13C64.42,90.24,68.75,76.5,73,62.05c2.18-7.39,3.35-11.7,3.85-13.62l.14-.52.52-.11.68-.13a1,1,0,0,1-.52-.28l-.21-.22,0-.31a3.16,3.16,0,0,1,.05-.8l0-.15a4.86,4.86,0,0,0,.18-1.45,2.06,2.06,0,0,0-2-2.08c-1.23.1-1.76,2.09-2,3.74s-.57,2.24-1.47,2.73l.78-.18L72.67,50c-4.48,18.75-7.54,31.39-9.62,39.78-2.28,9.24-3.57,14-4,15.36h0c-.71,2.18-.89,2.57-1.54,2.63a.92.92,0,0,1-1-.94C56.48,106.34,56.61,104.67,57.85,97.07Zm7.51-44.93a5.48,5.48,0,0,1,.07.6A49.63,49.63,0,0,1,65,61.29c-.64,6.08-2.18,16.46-4.57,30.84-.19,1.17-.37,2.24-.54,3.23.45-1.76.95-3.76,1.49-6,2-8.18,5-20.41,9.3-38.42ZM57.88,46.9h-.17c-2.34.09-3.63.15-4.06.19A45.53,45.53,0,0,0,41.57,50a113.29,113.29,0,0,0-14.15,6.24c-3.8,2-6.81,3.68-9.14,5.17L22.6,59c2.32-1.26,5.15-2.66,8.17-4,3.31-1.51,7-3,11.33-4.45a51.24,51.24,0,0,1,8.82-2.33C52.66,48,53.6,48,53.64,48c3.49-.3,6.18.35,8,1.93L62.85,51l-1.61.37.32,0c.87-.07,1.15.22,1.25.31l.13.14.06.17a12.38,12.38,0,0,1,.64,3.23c0,.32,0,.65.07,1a25.33,25.33,0,0,0,0-3.29,5,5,0,0,0-.2-1.14l-.27-.85-.32-.5C61.45,48.08,59.75,46.9,57.88,46.9ZM47.8,54.54c-7.82,1.89-16,3.93-24.57,6.1l-1.89.48c4.61-.94,12-2.76,22.31-5.52Zm7.44-4.93c-.47,0-1,0-1.46.06-.05,0-1,.08-2.67.28a50.42,50.42,0,0,0-8.46,2.24c-4.25,1.46-7.9,2.9-11.17,4.39l-.91.42c9.91-2.48,19.36-4.78,28.19-6.84A10,10,0,0,0,55.24,49.61Zm42.69-4.42a23.55,23.55,0,0,1,12.67,3.24s.06,0,.17,0a.77.77,0,0,0,.34-.12,1.76,1.76,0,0,0,1-1.35c-.06-.75-1-1.25-1.87-1.54-2.42-.88-6.62-1.08-12.51-.58l-3,.31L91,45.64l2.24-.21c1.05-.09,2-.17,3-.2C96.81,45.2,97.37,45.19,97.93,45.19Z"/></g></g></svg>